<?xml version="1.0" standalone="no"?>
<!DOCTYPE svg PUBLIC "-//W3C//DTD SVG 20010904//EN"
 "http://www.w3.org/TR/2001/REC-SVG-20010904/DTD/svg10.dtd">
<svg version="1.0" xmlns="http://www.w3.org/2000/svg"
 width="441.000000pt" height="532.000000pt" viewBox="0 0 441.000000 532.000000"
 preserveAspectRatio="xMidYMid meet">
<metadata>
Created by potrace 1.15, written by Peter Selinger 2001-2017
</metadata>
<g transform="translate(0.000000,532.000000) scale(0.100000,-0.100000)"
fill="#000000" stroke="none">
<path d="M282 5301 c-51 -5 -68 -11 -83 -30 -26 -32 -17 -56 37 -107 52 -49
79 -105 94 -199 13 -84 38 -124 119 -196 37 -32 61 -61 61 -74 0 -52 -58 -133
-207 -286 -161 -167 -203 -222 -249 -334 -27 -65 -29 -80 -29 -200 0 -127 1
-132 33 -197 83 -170 258 -255 507 -246 114 5 167 16 287 63 15 6 16 -4 11
-113 -15 -309 69 -573 246 -781 94 -111 289 -257 503 -377 54 -30 98 -61 98
-69 0 -18 66 -85 83 -85 7 0 28 -16 47 -36 35 -38 84 -64 118 -64 11 0 38 -17
61 -38 80 -73 225 -146 339 -171 75 -16 220 -14 310 5 120 24 212 59 322 120
220 123 365 167 555 167 142 1 204 -18 280 -85 150 -132 100 -281 -156 -462
-275 -195 -332 -248 -414 -381 -85 -139 -122 -182 -179 -210 -115 -56 -242
-55 -323 4 -21 16 -90 84 -153 152 -63 68 -165 174 -225 235 -94 94 -123 117
-195 152 -125 62 -192 76 -345 76 -158 0 -230 -16 -370 -84 -125 -61 -205
-124 -255 -201 -58 -90 -64 -171 -18 -247 70 -114 364 -135 663 -46 97 29 196
37 216 17 10 -10 5 -20 -24 -48 -46 -45 -48 -77 -7 -115 47 -44 110 -60 271
-70 94 -6 161 -15 188 -26 66 -26 120 -104 71 -104 -11 0 -20 -4 -20 -10 0
-13 46 -35 105 -49 75 -18 179 -73 280 -146 153 -112 235 -166 292 -192 l55
-25 -34 -35 c-18 -19 -43 -39 -56 -44 -28 -11 -38 -35 -22 -54 38 -45 293 -67
375 -31 80 34 95 67 43 90 -18 7 -48 29 -65 48 l-33 34 53 27 c28 15 62 34 74
43 22 15 23 15 32 -8 19 -52 93 -74 139 -42 30 21 30 77 0 98 -12 9 -20 17
-17 19 2 2 35 12 73 21 84 21 113 35 154 77 39 40 42 80 8 114 -34 34 -97 49
-197 49 -101 0 -132 -15 -156 -72 -8 -20 -16 -38 -18 -40 -2 -2 -25 21 -53 50
-28 29 -73 66 -100 83 -48 29 -49 30 -44 71 3 33 0 46 -17 63 -26 26 -53 27
-73 4 -20 -23 -29 -73 -17 -94 6 -13 2 -21 -18 -35 -15 -9 -51 -37 -80 -60
-86 -70 -127 -69 -347 13 -129 47 -199 62 -210 44 -15 -23 -36 -10 -46 31 -7
22 -18 52 -27 64 -23 36 -109 72 -213 89 -125 20 -177 34 -192 52 -13 16 -9
21 90 100 93 75 46 173 -96 204 -77 16 -164 -1 -390 -78 -178 -60 -205 -67
-277 -67 -122 0 -191 37 -210 115 -14 59 82 123 234 157 109 24 371 23 466 -2
171 -44 285 -120 534 -358 116 -110 214 -183 286 -210 122 -47 288 -23 374 55
12 12 49 74 81 137 62 124 119 207 172 250 18 15 96 62 173 105 248 139 405
247 524 360 170 161 244 307 244 480 1 135 -43 245 -127 323 -93 86 -202 118
-371 108 -189 -11 -298 -41 -652 -182 -222 -88 -344 -127 -446 -144 -181 -29
-355 10 -395 90 -9 19 -36 47 -60 63 -31 21 -42 35 -42 53 0 31 -15 61 -48 96
-24 27 -25 28 -14 110 20 156 79 268 204 383 77 71 221 150 293 161 l40 6 18
-79 c52 -234 219 -414 441 -478 82 -24 255 -16 343 15 186 65 342 236 374 410
21 115 -13 215 -133 390 -118 172 -135 233 -87 302 21 29 24 69 9 99 -16 29
-83 59 -140 61 l-51 2 -58 116 c-71 142 -100 189 -145 232 -74 72 -196 118
-313 118 -35 0 -63 2 -63 5 0 3 14 34 32 68 39 76 45 168 14 230 -29 58 -90
90 -166 85 -44 -2 -61 1 -65 11 -3 9 -14 11 -30 7 -28 -7 -37 7 -56 93 -17 78
-52 100 -95 60 -19 -17 -25 -19 -42 -8 -27 17 -56 71 -76 140 -28 100 -63 121
-98 60 -23 -41 -95 -88 -110 -73 -18 18 -28 14 -28 -8 0 -12 -10 -25 -25 -32
-13 -6 -36 -28 -50 -49 -14 -22 -31 -39 -39 -39 -8 0 -31 -19 -52 -42 -24 -27
-45 -42 -57 -40 -10 2 -27 -4 -36 -13 -23 -20 -55 -9 -91 30 -62 67 -152 112
-193 95 -12 -5 -16 -9 -9 -9 24 -2 11 -16 -28 -33 -48 -20 -80 -69 -80 -123
l0 -40 23 40 c12 22 34 46 49 54 30 17 60 10 183 -43 53 -23 69 -25 131 -20
71 6 71 6 76 -20 5 -24 2 -26 -26 -26 -18 0 -40 -6 -50 -13 -16 -12 -17 -17
-6 -38 6 -13 26 -36 44 -51 l31 -27 -29 -30 c-69 -72 -183 -92 -403 -72 -108
10 -140 10 -199 -3 -87 -18 -182 -65 -294 -145 -57 -41 -87 -56 -91 -48 -4 7
-9 36 -13 65 -4 29 -29 122 -56 206 -28 85 -50 161 -50 170 0 9 9 35 21 58 40
78 25 145 -60 257 -23 30 -41 62 -41 71 0 10 13 34 30 55 38 48 38 67 -1 99
-53 45 -146 31 -175 -25 -16 -33 -18 -102 -4 -130 6 -10 8 -19 6 -19 -3 0 -45
36 -93 80 -48 44 -110 92 -137 105 -51 25 -68 27 -184 16z m180 -42 c20 -10
66 -45 100 -78 68 -63 134 -111 153 -111 9 0 7 14 -5 51 -29 85 1 146 76 156
30 4 45 0 67 -17 15 -12 27 -25 27 -29 0 -5 -14 -26 -31 -47 -39 -49 -35 -75
25 -164 57 -85 66 -103 66 -136 0 -42 -40 -146 -68 -176 -14 -16 -21 -28 -15
-28 6 0 13 7 17 15 12 33 24 10 64 -122 48 -156 46 -147 29 -165 -7 -7 -20
-26 -30 -43 -16 -26 -14 -25 16 8 l35 38 12 -73 c24 -143 -2 -333 -61 -450
-11 -21 -17 -38 -14 -38 11 0 74 145 90 205 9 33 18 88 22 123 l6 63 62 44
c104 75 196 124 279 151 76 24 89 25 290 22 243 -3 282 4 360 73 50 44 65 43
105 -7 21 -26 21 -26 1 -51 -11 -14 -20 -35 -20 -47 0 -29 27 -65 57 -77 39
-15 91 22 93 66 1 11 8 -2 17 -29 38 -124 125 -189 256 -190 40 -1 102 3 138
7 77 10 99 -3 99 -56 0 -58 -55 -107 -118 -107 -61 0 -85 81 -32 107 14 7 19
13 11 13 -24 0 -51 -32 -51 -60 0 -47 31 -75 82 -75 58 0 107 33 150 103 127
204 123 199 164 205 46 8 153 -6 214 -28 70 -24 146 -82 184 -139 42 -63 150
-266 145 -271 -3 -2 -75 -21 -161 -43 l-157 -39 30 52 c20 35 29 65 29 96 0
108 -109 181 -200 134 -47 -24 -55 -48 -40 -126 7 -37 10 -74 7 -82 -3 -9 -32
-32 -64 -52 -99 -63 -153 -125 -153 -175 0 -12 -18 -42 -39 -66 -63 -72 -78
-178 -32 -236 13 -16 20 -44 22 -87 l4 -63 -73 -23 c-169 -53 -340 -197 -419
-351 -53 -105 -67 -172 -58 -288 10 -149 9 -169 -14 -222 -27 -63 -69 -104
-141 -140 -48 -24 -70 -28 -167 -32 -131 -5 -115 -12 -337 129 -424 270 -566
438 -648 767 -30 120 -32 390 -4 500 40 159 175 369 346 540 76 78 88 92 41
52 -168 -144 -348 -392 -408 -566 -10 -28 -21 -35 -95 -62 -206 -74 -399 -71
-551 11 -120 63 -186 173 -195 326 -11 191 54 316 291 559 60 62 83 80 90 70
6 -9 7 -8 3 5 -4 11 7 37 28 67 19 27 42 70 52 95 12 32 21 44 31 40 23 -8
-44 72 -99 118 -62 53 -87 94 -93 150 -2 24 -18 73 -35 108 -45 96 -38 139 22
139 18 0 42 -12 66 -34 35 -33 37 -37 37 -99 0 -36 3 -60 8 -54 10 16 26 -9
28 -43 2 -23 2 -23 6 -3 2 12 -1 32 -7 43 -6 12 -14 42 -16 68 -5 47 -38 103
-72 120 -45 23 -70 22 -102 -4 -30 -26 -31 -26 -51 -8 -36 33 -43 53 -23 75
41 45 139 12 237 -78 l62 -57 -50 52 c-27 29 -65 63 -82 75 -18 12 -33 26 -33
31 0 12 68 -3 112 -25z m2008 -215 c8 -16 27 -51 42 -77 16 -27 26 -53 22 -58
-3 -5 -2 -8 3 -7 4 1 19 -4 31 -11 21 -11 27 -10 46 8 38 36 54 27 71 -36 8
-32 22 -70 29 -85 13 -24 12 -28 -5 -44 -25 -22 -29 -16 -39 48 -4 29 -8 43
-9 30 -1 -22 -1 -22 -28 6 -16 15 -20 19 -11 7 9 -11 24 -37 33 -58 l15 -37
-47 0 c-60 0 -49 -12 14 -15 35 -2 47 -6 45 -16 -3 -12 30 10 48 32 3 3 15 11
27 17 19 11 24 8 43 -24 12 -19 25 -33 28 -30 2 3 -1 12 -8 21 -11 13 -6 15
34 15 57 0 93 -17 135 -65 65 -74 37 -190 -72 -297 -75 -74 -163 -117 -255
-125 -79 -6 -177 10 -211 35 -53 39 -62 62 -70 185 -5 65 -14 123 -21 132 -6
8 -8 20 -4 27 6 10 4 10 -9 -1 -12 -10 -14 -18 -7 -31 6 -10 10 -63 10 -117 1
-144 23 -192 104 -232 48 -24 32 -28 -22 -5 -80 33 -127 103 -141 211 -5 37
-9 56 -10 41 -1 -24 -4 -26 -37 -25 -32 2 -42 9 -76 54 -22 29 -61 66 -87 82
-58 38 -95 76 -86 90 11 19 56 13 195 -24 23 -7 23 -6 -5 14 -16 11 -42 23
-57 27 -37 8 -51 36 -43 84 7 39 38 90 56 90 5 0 9 -10 10 -22 1 -18 4 -15 16
15 14 34 33 50 33 28 0 -13 50 -71 60 -71 5 0 4 15 -1 32 -20 72 -10 92 86
166 l30 23 5 -33 6 -33 22 48 c24 54 39 56 62 11z m710 -969 c76 -40 93 -125
40 -208 -16 -26 -40 -52 -52 -56 -21 -8 -21 -10 -5 -16 21 -9 142 14 277 51
75 20 111 25 168 21 66 -4 77 -7 104 -34 29 -29 30 -33 18 -67 -13 -41 -15
-41 -63 -21 -20 8 -44 15 -54 14 -10 0 0 -6 22 -13 46 -14 71 -50 62 -88 -9
-34 -74 -65 -146 -70 -52 -3 -54 -2 -57 25 -4 38 -21 57 -73 80 -51 22 -46 28
41 51 29 8 43 15 30 15 -13 1 -51 -10 -85 -23 -34 -13 -73 -26 -87 -30 -14 -3
-34 -12 -45 -21 -20 -16 -20 -16 2 -6 60 29 178 1 189 -46 11 -40 -11 -69 -78
-105 -44 -23 -64 -40 -66 -55 -6 -39 -77 -108 -144 -139 -59 -27 -71 -29 -188
-29 -189 0 -240 31 -240 145 0 83 52 160 130 194 19 8 29 15 22 16 -7 0 -22
-5 -33 -10 -16 -9 -19 -7 -19 12 0 40 36 84 119 147 89 68 99 87 82 156 -18
70 -14 93 17 109 35 19 76 20 112 1z m516 -497 c3 -12 45 -78 92 -147 121
-178 147 -237 147 -332 0 -70 -4 -84 -43 -161 -135 -273 -479 -386 -754 -247
-105 53 -220 177 -257 279 -8 19 -20 49 -27 66 -16 36 -39 143 -49 227 l-7 58
33 -14 c20 -8 36 -23 40 -38 6 -22 7 -22 8 -3 1 21 7 22 124 26 78 4 138 11
166 22 l45 16 40 -37 41 -38 -34 37 -34 37 44 40 c24 22 48 40 52 41 4 0 22
-7 38 -16 17 -8 33 -13 35 -11 3 2 -9 10 -25 17 -47 19 -54 34 -32 61 l19 24
24 -20 23 -20 -17 21 c-28 32 -22 37 40 29 250 -29 357 -122 401 -346 7 -36 9
-39 10 -14 2 48 -27 146 -56 189 -35 54 -87 100 -148 130 -49 26 -165 55 -215
56 -45 0 57 60 105 61 22 0 60 6 85 13 66 19 78 18 86 -6z m389 -1083 c179
-47 271 -163 282 -355 11 -169 -38 -287 -174 -431 -145 -151 -273 -246 -556
-407 -84 -48 -167 -98 -185 -112 -52 -38 -119 -134 -179 -255 -85 -169 -136
-206 -288 -207 -131 0 -230 50 -378 190 -202 194 -299 272 -402 323 -160 79
-227 93 -440 93 -154 -1 -192 -4 -260 -22 -179 -49 -256 -147 -192 -243 39
-59 85 -74 217 -73 l115 0 200 68 c213 73 288 87 364 66 52 -14 101 -59 101
-93 0 -29 -28 -61 -92 -105 -80 -55 -56 -108 59 -130 32 -6 93 -18 136 -26 43
-8 96 -25 119 -38 40 -22 89 -79 87 -102 0 -6 -6 -3 -12 8 -54 86 -93 102
-286 121 -156 16 -237 36 -270 67 -28 25 -27 32 14 77 42 46 45 73 10 89 -40
18 -107 14 -213 -12 -184 -47 -269 -58 -392 -54 -93 3 -126 9 -174 29 -71 29
-97 61 -104 127 -11 121 104 252 304 347 184 87 465 92 645 12 92 -41 170
-110 348 -306 179 -197 249 -260 315 -281 104 -33 276 1 343 68 19 19 73 93
120 165 105 161 174 229 362 354 172 115 242 182 283 270 26 54 30 73 25 113
-16 130 -121 222 -291 251 -79 13 -177 7 -316 -21 -115 -23 -185 -51 -329
-130 -150 -83 -208 -105 -342 -131 -87 -16 -132 -20 -191 -15 -123 10 -260 58
-374 131 -66 42 -63 49 31 58 156 17 243 79 282 205 13 41 20 51 32 46 120
-53 264 -67 401 -40 122 25 219 57 480 161 235 93 376 138 486 154 96 14 216
12 279 -4z m-634 -1885 c22 -18 22 -19 5 -20 -28 0 -11 -13 19 -14 36 -2 121
-78 149 -133 l23 -47 7 49 c4 26 15 63 23 81 14 29 24 35 72 45 69 14 193 -2
231 -30 34 -25 38 -67 8 -98 -32 -35 -60 -47 -169 -78 -90 -26 -119 -39 -119
-54 0 -4 14 -6 30 -3 36 5 60 -12 60 -43 0 -34 -24 -48 -66 -40 -32 5 -39 13
-57 55 l-20 49 -41 -35 c-23 -19 -69 -49 -103 -66 -55 -27 -70 -30 -130 -26
-91 5 -158 39 -358 178 -186 130 -249 164 -353 191 -93 24 -105 34 -29 25 48
-6 57 -5 57 8 0 19 23 15 120 -21 255 -97 306 -107 373 -80 19 8 42 10 57 6
14 -4 45 -7 70 -7 42 1 42 1 -13 8 -97 12 -78 22 28 15 91 -7 98 -6 80 8 -11
9 -21 11 -23 6 -5 -14 -52 -11 -53 4 0 9 -2 9 -6 0 -3 -9 -10 -10 -24 -3 -32
18 -21 26 34 27 92 2 104 6 32 12 l-70 6 35 22 c43 28 90 29 121 3z m38 -441
c16 -15 20 -24 12 -32 -16 -16 -13 -31 3 -18 19 16 60 -4 52 -25 -6 -16 10
-19 19 -4 9 15 25 12 25 -5 0 -31 -60 -49 -181 -53 -117 -4 -218 13 -234 39
-12 18 4 23 39 12 27 -8 36 -8 40 3 3 8 0 11 -10 7 -22 -8 -16 18 11 52 22 27
32 31 97 36 40 3 80 6 89 7 8 1 25 -8 38 -19z"/>
<path d="M3792 525 c-18 -8 -43 -27 -57 -42 -25 -28 -53 -99 -43 -108 3 -3 21
3 39 13 19 11 58 27 87 37 96 31 125 77 66 104 -32 14 -51 14 -92 -4z"/>
</g>
</svg>
